C:\Users\movea\Dropbox\PhDWork\ExperimentalData\subject7\100\P7S100W02_filtered35.mot
nRows=11
nColumns=28

name C:\Users\movea\Dropbox\PhDWork\ExperimentalData\subject7\100\P7S100W02_filtered35.mot
datacolumns 28
datarows 11
range 1.5000000000 1.5100000000
endheader
time	ground_force_1_vx	ground_force_1_vy	ground_force_1_vz	ground_force_1_px	ground_force_1_py	ground_force_1_pz	ground_moment_1_mx	ground_moment_1_my	ground_moment_1_mz	ground_force_2_vx	ground_force_2_vy	ground_force_2_vz	ground_force_2_px	ground_force_2_py	ground_force_2_pz	ground_moment_2_mx	ground_moment_2_my	ground_moment_2_mz	ground_force_3_vx	ground_force_3_vy	ground_force_3_vz	ground_force_3_px	ground_force_3_py	ground_force_3_pz	ground_moment_3_mx	ground_moment_3_my	ground_moment_3_mz
        1.5000000000	        0.0042279832	        0.0000000000	       -0.1064852647	        0.1988394958	        0.0000558755	       -0.3004071327	       -0.0695875011	        0.0034295367	       -0.0044973036	       -0.0000000000	        0.0000000000	        0.0000000000	        0.2029003516	       -0.0000795827	        0.4543649445	       -0.0000000000	        0.0000000000	        0.0000000000	        0.0000000000	        0.0000000000	        0.0000000000	        0.2076431971	        0.0000770316	        1.3583900146	        0.0000000000	        0.0000000000	        0.0000000000	
        1.5010000000	        0.0019604439	        0.0000000000	       -0.0695577431	        0.1988394958	        0.0000558755	       -0.3004071327	       -0.0440372832	        0.0023512034	       -0.0028440335	       -0.0000000000	        0.0000000000	        0.0000000000	        0.2029003516	       -0.0000795827	        0.4543649445	       -0.0000000000	        0.0000000000	        0.0000000000	        0.0000000000	        0.0000000000	        0.0000000000	        0.2076431971	        0.0000770316	        1.3583900146	        0.0000000000	        0.0000000000	        0.0000000000	
        1.5020000000	        0.0002986441	        0.0000000000	       -0.0401362868	        0.1988394958	        0.0000558755	       -0.3004071327	       -0.0239368593	        0.0014719996	       -0.0015437446	        0.0000000000	        0.0000000000	        0.0000000000	        0.2029003516	       -0.0000795827	        0.4543649445	       -0.0000000000	        0.0000000000	        0.0000000000	        0.0000000000	        0.0000000000	        0.0000000000	        0.2076431971	        0.0000770316	        1.3583900146	        0.0000000000	        0.0000000000	        0.0000000000	
        1.5030000000	       -0.0008478995	        0.0000000000	       -0.0176530392	        0.1988394958	        0.0000558755	       -0.3004071327	       -0.0087948966	        0.0007830452	       -0.0005645127	        0.0000000000	        0.0000000000	        0.0000000000	        0.2029003516	       -0.0000795827	        0.4543649445	       -0.0000000000	        0.0000000000	        0.0000000000	        0.0000000000	        0.0000000000	        0.0000000000	        0.2076431971	        0.0000770316	        1.3583900146	        0.0000000000	        0.0000000000	        0.0000000000	
        1.5040000000	       -0.0015728898	        0.0110212502	       -0.0012877513	        0.1988394958	        0.0000558755	       -0.3004071327	        0.0020328369	        0.0002663895	        0.0001354511	        0.0000000000	        0.0000000000	        0.0000000000	        0.2029003516	       -0.0000795827	        0.4543649445	       -0.0000000000	        0.0000000000	        0.0000000000	        0.0000000000	        0.0000000000	        0.0000000000	        0.2076431971	        0.0000770316	        1.3583900146	        0.0000000000	        0.0000000000	        0.0000000000	
        1.5050000000	       -0.0019663422	        0.0333655978	        0.0098997090	        0.1988394958	        0.0000558755	       -0.3004071327	        0.0092539643	       -0.0001009491	        0.0006020111	        0.0000000000	        0.0000000000	        0.0000000000	        0.2029003516	       -0.0000795827	        0.4543649445	       -0.0000000000	        0.0000000000	        0.0000000000	        0.0000000000	        0.0000000000	        0.0000000000	        0.2076431971	        0.0000770316	        1.3583900146	        0.0000000000	        0.0000000000	        0.0000000000	
        1.5060000000	       -0.0021101274	        0.0464389848	        0.0168719125	        0.1988394958	        0.0000558755	       -0.3004071327	        0.0135747802	       -0.0003439265	        0.0008809233	        0.0000000000	        0.0000000000	        0.0000000000	        0.2029003516	       -0.0000795827	        0.4543649445	       -0.0000000000	        0.0000000000	        0.0000000000	        0.0000000000	        0.0000000000	        0.0000000000	        0.2076431971	        0.0000770316	        1.3583900146	        0.0000000000	        0.0000000000	        0.0000000000	
        1.5070000000	       -0.0020754573	        0.0524009967	        0.0205463287	        0.1988394958	        0.0000558755	       -0.3004071327	        0.0156564101	       -0.0004872738	        0.0010150021	        0.0000000000	        0.0000000000	        0.0000000000	        0.2029003516	       -0.0000795827	        0.4543649445	       -0.0000000000	        0.0000000000	        0.0000000000	        0.0000000000	        0.0000000000	        0.0000000000	        0.2076431971	        0.0000770316	        1.3583900146	        0.0000000000	        0.0000000000	        0.0000000000	
        1.5080000000	       -0.0019218466	        0.0531630058	        0.0217523145	        0.1988394958	        0.0000558755	       -0.3004071327	        0.0160878874	       -0.0005540201	        0.0010423823	        0.0000000000	        0.0000000000	        0.0000000000	        0.2029003516	       -0.0000795827	        0.4543649445	       -0.0000000000	        0.0000000000	        0.0000000000	        0.0000000000	        0.0000000000	        0.0000000000	        0.2076431971	        0.0000770316	        1.3583900146	        0.0000000000	        0.0000000000	        0.0000000000	
        1.5090000000	       -0.0016971413	        0.0503481316	        0.0212074466	        0.1988394958	        0.0000558755	       -0.3004071327	        0.0153724005	       -0.0005645957	        0.0009956326	        0.0000000000	        0.0000000000	        0.0000000000	        0.2029003516	       -0.0000795827	        0.4543649445	       -0.0000000000	        0.0000000000	        0.0000000000	        0.0000000000	        0.0000000000	        0.0000000000	        0.2076431971	        0.0000770316	        1.3583900146	        0.0000000000	        0.0000000000	        0.0000000000	
        1.5100000000	       -0.0014382692	        0.0452821323	        0.0195084640	        0.1988394958	        0.0000558755	       -0.3004071327	        0.0139233387	       -0.0005363867	        0.0009015025	        0.0000000000	        0.0000000000	        0.0000000000	        0.2029003516	       -0.0000795827	        0.4543649445	       -0.0000000000	       -0.0000000000	        0.0000000000	        0.0000000000	        0.0000000000	        0.0000000000	        0.2076431971	        0.0000770316	        1.3583900146	        0.0000000000	        0.0000000000	        0.0000000000	
